Coordinates
version=1
nRows=27
nColumns=38
inDegrees=no

Units are S.I. units (second, meters, Newtons, ...)
If the header above contains a line with 'inDegrees', this indicates whether rotational values are in degrees (yes) or radians (no).

endheader
time	pelvis_tilt	pelvis_list	pelvis_rotation	pelvis_tx	pelvis_ty	pelvis_tz	hip_flexion_r	hip_adduction_r	hip_rotation_r	knee_angle_r	ankle_angle_r	subtalar_angle_r	mtp_angle_r	hip_flexion_l	hip_adduction_l	hip_rotation_l	knee_angle_l	ankle_angle_l	subtalar_angle_l	mtp_angle_l	lumbar_extension	lumbar_bending	lumbar_rotation	arm_flex_r	arm_add_r	arm_rot_r	elbow_flex_r	pro_sup_r	wrist_flex_r	wrist_dev_r	arm_flex_l	arm_add_l	arm_rot_l	elbow_flex_l	pro_sup_l	wrist_flex_l	wrist_dev_l
1.98	1.14765	1.49496	-2.41356	0.869419	0.730507	0.95689	0.251223	-0.191667	-0.0771522	1.23704	-0.125617	0	0	-0.146585	0.146597	0.0216148	0.108115	0.133703	0	0	-0.0478911	-0.0408733	0.121792	0.241242	-0.00297115	0.344634	1.13205	1.5708	0	0	-0.145541	-0.24601	0.362642	0.567304	0.789446	0	0
1.99	1.13165	1.49573	-2.3901	0.870207	0.728578	0.95704	0.264582	-0.186325	-0.0710167	1.25081	-0.112467	0	0	-0.151349	0.14364	0.0282206	0.105377	0.134648	0	0	-0.050453	-0.0407295	0.120112	0.246852	-0.00388027	0.336469	1.1278	1.5708	0	0	-0.142499	-0.245112	0.359726	0.565076	0.792443	0	0
2	1.11376	1.4966	-2.36455	0.871007	0.726684	0.957211	0.278248	-0.180707	-0.0646928	1.26378	-0.0999211	0	0	-0.155785	0.140395	0.0344013	0.103241	0.135983	0	0	-0.0530371	-0.0404966	0.11901	0.252253	-0.00554827	0.328067	1.12405	1.5708	0	0	-0.139091	-0.243523	0.354692	0.562018	0.791367	0	0
2.01	1.09697	1.49747	-2.33957	0.87181	0.724859	0.957361	0.292392	-0.175268	-0.0587361	1.27623	-0.0873372	0	0	-0.159569	0.137116	0.0407042	0.10195	0.137644	0	0	-0.0556498	-0.0402152	0.117389	0.258241	-0.00722642	0.318274	1.11979	1.5708	0	0	-0.13592	-0.241933	0.350601	0.559066	0.790902	0	0
2.02	1.08154	1.49833	-2.31524	0.872618	0.723104	0.957498	0.306655	-0.169784	-0.0528782	1.2879	-0.0747175	0	0	-0.162719	0.133791	0.0472764	0.101344	0.139207	0	0	-0.0583279	-0.0399218	0.114943	0.264548	-0.00882538	0.308792	1.11539	1.5708	0	0	-0.133289	-0.240582	0.348059	0.557182	0.794148	0	0
2.03	1.2207	1.50726	-2.49665	0.867089	0.717765	0.955703	0.355466	-0.14651	0.0151388	1.31059	-0.0535224	0	0	-0.157444	0.135913	0.00104668	0.0900152	0.14022	0	0	-0.0383688	-0.0478354	0.162294	0.264119	0.00114512	0.295397	1.10428	1.5708	0	0	-0.142353	-0.250725	0.345754	0.566814	0.795398	0	0
2.04	1.20862	1.50806	-2.47848	0.867532	0.715861	0.955764	0.371441	-0.139087	0.0252004	1.32207	-0.0401283	0	0	-0.159582	0.133226	0.00187019	0.090915	0.142006	0	0	-0.041165	-0.0482959	0.162936	0.270161	9.48995e-05	0.282411	1.10129	1.5708	0	0	-0.141347	-0.251395	0.347059	0.569847	0.794271	0	0
2.05	1.18944	1.5091	-2.44942	0.868488	0.714324	0.955936	0.386141	-0.132938	0.0308286	1.33238	-0.025361	0	0	-0.161633	0.129479	0.00881851	0.0923747	0.143228	0	0	-0.044415	-0.0478949	0.1596	0.276958	-0.00162519	0.271996	1.09788	1.5708	0	0	-0.139481	-0.250422	0.345433	0.569173	0.793005	0	0
2.06	1.16473	1.51025	-2.41442	0.869146	0.712637	0.956121	0.40103	-0.126529	0.0362057	1.34221	-0.0104719	0	0	-0.164047	0.125293	0.0164362	0.093215	0.144636	0	0	-0.0476631	-0.0473103	0.156207	0.284423	-0.00421431	0.264005	1.09342	1.5708	0	0	-0.137099	-0.248812	0.342024	0.566957	0.79356	0	0
2.07	1.13663	1.51152	-2.37622	0.86982	0.710879	0.956279	0.416463	-0.119848	0.0418272	1.35153	0.00426605	0	0	-0.166428	0.120738	0.0235881	0.0941223	0.146648	0	0	-0.0507538	-0.0463513	0.153345	0.292145	-0.00725699	0.255345	1.08811	1.5708	0	0	-0.134681	-0.247251	0.339529	0.564696	0.796796	0	0
2.08	1.10349	1.51255	-2.33276	0.870494	0.70914	0.956472	0.431861	-0.11331	0.0479779	1.36024	0.0180263	0	0	-0.169343	0.116197	0.030896	0.094509	0.148207	0	0	-0.0542726	-0.0450587	0.149942	0.300496	-0.0108931	0.248004	1.08246	1.5708	0	0	-0.13271	-0.24553	0.337179	0.562725	0.800833	0	0
2.09	1.07237	1.51395	-2.29193	0.871088	0.707334	0.956641	0.448301	-0.105982	0.0552423	1.36858	0.0304894	0	0	-0.172107	0.111468	0.0376637	0.0941382	0.149211	0	0	-0.0571166	-0.0435285	0.146993	0.308648	-0.0148239	0.24281	1.07671	1.5708	0	0	-0.130897	-0.243115	0.334064	0.55959	0.806714	0	0
2.1	1.03617	1.5151	-2.24558	0.871674	0.70548	0.956863	0.464617	-0.0993393	0.0615265	1.37636	0.0420399	0	0	-0.175528	0.106585	0.0454544	0.0930287	0.149661	0	0	-0.0601415	-0.0418904	0.143607	0.316585	-0.0186652	0.23604	1.07075	1.5708	0	0	-0.129444	-0.240756	0.330414	0.55653	0.813883	0	0
2.11	1.00305	1.51674	-2.2031	0.87212	0.703585	0.957013	0.482173	-0.0918642	0.068931	1.38393	0.0516481	0	0	-0.177998	0.10144	0.0522512	0.0922767	0.150397	0	0	-0.0624823	-0.0402186	0.14108	0.324436	-0.0221544	0.226751	1.06441	1.5708	0	0	-0.128329	-0.238938	0.327248	0.5545	0.818997	0	0
2.12	0.971513	1.5184	-2.1623	0.872555	0.701684	0.957143	0.500102	-0.0844199	0.0768711	1.39076	0.060725	0	0	-0.179941	0.0963461	0.0583902	0.0919466	0.151211	0	0	-0.064678	-0.0384028	0.138703	0.33243	-0.0265508	0.218387	1.0583	1.5708	0	0	-0.127283	-0.236758	0.323331	0.552473	0.823714	0	0
2.13	0.937091	1.5199	-2.11847	0.87305	0.699761	0.957279	0.517987	-0.077424	0.0844459	1.3968	0.0700972	0	0	-0.181838	0.091346	0.0646667	0.0917922	0.151957	0	0	-0.0668815	-0.0363107	0.136158	0.340006	-0.0313957	0.210403	1.05253	1.5708	0	0	-0.126649	-0.234468	0.319751	0.550897	0.827242	0	0
2.14	0.898138	1.52138	-2.06989	0.873567	0.697811	0.957412	0.535916	-0.0710007	0.0919692	1.40194	0.077478	0	0	-0.183604	0.0862814	0.0711627	0.0917619	0.152681	0	0	-0.0689114	-0.0339739	0.133177	0.346605	-0.035693	0.20265	1.04706	1.5708	0	0	-0.126772	-0.2326	0.317182	0.550517	0.829276	0	0
2.15	0.850515	1.5229	-2.01227	0.874077	0.695746	0.957534	0.553566	-0.0648554	0.0988226	1.40609	0.0833719	0	0	-0.185274	0.0807329	0.0782794	0.0920262	0.153278	0	0	-0.0708032	-0.0313527	0.129656	0.352855	-0.039383	0.195725	1.04118	1.5708	0	0	-0.12714	-0.230238	0.313409	0.549568	0.831556	0	0
2.16	0.792236	1.5241	-1.94369	0.874578	0.693611	0.957661	0.570454	-0.0591751	0.104747	1.40897	0.0879943	0	0	-0.187384	0.0747318	0.0860796	0.0922641	0.154047	0	0	-0.0730115	-0.0284366	0.125598	0.360585	-0.0443465	0.191442	1.03386	1.5708	0	0	-0.127966	-0.228081	0.310073	0.548966	0.83461	0	0
2.17	0.724517	1.5247	-1.8654	0.875014	0.691475	0.957825	0.586094	-0.0536346	0.110599	1.41006	0.0915739	0	0	-0.189879	0.0683798	0.0939989	0.0926395	0.154903	0	0	-0.07595	-0.0252598	0.120944	0.369103	-0.0496756	0.187652	1.02614	1.5708	0	0	-0.129115	-0.226723	0.308611	0.549829	0.836379	0	0
2.18	0.646186	1.5243	-1.77631	0.875432	0.689274	0.958064	0.599941	-0.0484375	0.116124	1.40922	0.0946125	0	0	-0.193141	0.0615267	0.101439	0.0931422	0.156271	0	0	-0.0798562	-0.0217247	0.116067	0.37688	-0.0541984	0.181737	1.01936	1.5708	0	0	-0.130065	-0.225668	0.308627	0.551153	0.837326	0	0
2.19	0.572661	1.52357	-1.69162	0.875934	0.687106	0.958304	0.613262	-0.0442934	0.120892	1.40669	0.0964816	0	0	-0.196067	0.0544371	0.108686	0.0943098	0.158486	0	0	-0.0837796	-0.0182587	0.110657	0.384292	-0.0581458	0.175343	1.01278	1.5708	0	0	-0.130933	-0.224695	0.308759	0.552193	0.838205	0	0
2.2	0.562464	1.54116	-1.68845	0.873815	0.686374	0.957291	0.654087	-0.0373054	0.130124	1.39957	0.0899708	0	0	-0.170983	0.0513902	0.100537	0.105453	0.163511	0	0	-0.0717237	-0.0162958	0.123978	0.393626	-0.0636175	0.167789	1.00496	1.5708	0	0	-0.12617	-0.219674	0.307889	0.545766	0.839836	0	0
2.21	0.439713	1.52248	-1.53615	0.876802	0.682351	0.95862	0.639234	-0.0381965	0.130703	1.39704	0.0958736	0	0	-0.199488	0.0405982	0.122634	0.0988036	0.163856	0	0	-0.0895622	-0.0112189	0.0994314	0.398616	-0.0669466	0.163992	0.999184	1.5708	0	0	-0.132739	-0.221446	0.306629	0.551474	0.843119	0	0
2.22	0.374459	1.52124	-1.46031	0.877366	0.679938	0.958765	0.650427	-0.0356269	0.135489	1.38973	0.0955081	0	0	-0.201604	0.0335537	0.128681	0.101033	0.166114	0	0	-0.0924865	-0.0073173	0.094661	0.405055	-0.0718711	0.15856	0.992918	1.5708	0	0	-0.133806	-0.22031	0.308202	0.552294	0.842727	0	0
2.23	0.304882	1.5197	-1.37988	0.877803	0.677413	0.958903	0.660451	-0.0333808	0.13955	1.38029	0.0935761	0	0	-0.203404	0.0259344	0.134766	0.103702	0.168672	0	0	-0.0952977	-0.00284272	0.0894477	0.410581	-0.0751053	0.149719	0.98632	1.5708	0	0	-0.135162	-0.219678	0.310932	0.553129	0.84238	0	0
2.24	0.207916	1.51667	-1.26849	0.876684	0.673548	0.959285	0.66859	-0.00975479	0.12865	1.38636	0.214513	0	0	-0.205376	0.00739726	0.127057	0.10439	0.178695	0	0	-0.0986879	0.000397388	0.0833999	0.416119	-0.0769618	0.137751	0.977719	1.5708	0	0	-0.135508	-0.222532	0.314196	0.55349	0.842316	0	0
